<svg width="64" height="64" viewBox="0 0 64 64" fill="none" xmlns="http://www.w3.org/2000/svg">
  <rect width="64" height="64" rx="18" fill="url(#bg)"/>
  <circle cx="32" cy="32" r="17.5" stroke="#EAF6FF" stroke-width="2.5" opacity="0.92"/>
  <path d="M18 27.5C22.5 24.5 27.1 23 32 23C36.9 23 41.5 24.5 46 27.5" stroke="#73E1FF" stroke-width="2.5" stroke-linecap="round"/>
  <path d="M19 37.5C23.2 40.9 27.6 42.5 32 42.5C36.4 42.5 40.8 40.9 45 37.5" stroke="#8D8CFF" stroke-width="2.5" stroke-linecap="round"/>
  <path d="M32 14.5C28.8 20.1 27 26 27 32C27 38 28.8 43.9 32 49.5" stroke="#C9F7FF" stroke-width="2.5" stroke-linecap="round" opacity="0.88"/>
  <path d="M32 14.5C35.2 20.1 37 26 37 32C37 38 35.2 43.9 32 49.5" stroke="#C9F7FF" stroke-width="2.5" stroke-linecap="round" opacity="0.88"/>
  <path d="M20 21L26.5 27.5" stroke="#78F5C0" stroke-width="2.5" stroke-linecap="round"/>
  <path d="M44 21L37.5 27.5" stroke="#FFD67E" stroke-width="2.5" stroke-linecap="round"/>
  <path d="M20 43L27.5 36.5" stroke="#73E1FF" stroke-width="2.5" stroke-linecap="round"/>
  <circle cx="20" cy="21" r="4.5" fill="#78F5C0"/>
  <circle cx="44" cy="21" r="4.5" fill="#FFD67E"/>
  <circle cx="20" cy="43" r="4.5" fill="#73E1FF"/>
  <circle cx="32" cy="32" r="4.5" fill="#F7FBFF"/>
  <defs>
    <linearGradient id="bg" x1="8" y1="6" x2="57" y2="58" gradientUnits="userSpaceOnUse">
      <stop stop-color="#0C1830"/>
      <stop offset="0.52" stop-color="#12203A"/>
      <stop offset="1" stop-color="#09101E"/>
    </linearGradient>
  </defs>
</svg>
