<svg width="64" height="64" viewBox="0 0 64 64" fill="none" xmlns="http://www.w3.org/2000/svg">
  <rect width="64" height="64" rx="18" fill="#101317"/>
  <path d="M39.7 20.3C38.1 22.2 35.6 23.2 33.5 23C33.2 20.8 34.3 18.5 35.7 17.1C37.2 15.5 39.9 14.4 42 14.5C42.2 16.8 41.3 18.6 39.7 20.3Z" fill="white"/>
  <path d="M43.7 32.2C43.7 39.5 49.9 41.9 50 42C50 42.1 49 45.4 46.8 48.8C44.9 51.8 42.8 54.7 39.7 54.8C36.7 54.9 35.7 53 32.2 53C28.8 53 27.6 54.7 24.8 54.9C21.8 55 19.5 51.6 17.6 48.7C13.7 42.8 10.7 32 14.8 24.9C16.8 21.4 20.4 19.2 24.3 19.1C27.2 19 29.9 21.2 31.7 21.2C33.4 21.2 36.7 18.5 40.2 18.9C41.7 19 45.8 19.5 48.5 23.6C48.3 23.7 43.7 26.5 43.7 32.2Z" fill="white"/>
</svg>
