<svg width="64" height="64" viewBox="0 0 64 64" fill="none" xmlns="http://www.w3.org/2000/svg">
  <rect width="64" height="64" rx="18" fill="#5865F2"/>
  <path d="M20 43C23 45.4 26.1 46.8 29.2 47.4L31.4 44.6C29.8 44.1 28.5 43.3 27.6 42.6C30.5 43.9 33.6 43.9 36.4 42.6C35.5 43.3 34.1 44.1 32.6 44.6L34.8 47.4C37.9 46.8 41 45.4 44 43C44 43 43.9 33 39 23.2C39 23.2 35.9 21 32 21C28.1 21 25 23.2 25 23.2C20.1 33 20 43 20 43Z" fill="white"/>
  <circle cx="27.8" cy="33.4" r="2.3" fill="#5865F2"/>
  <circle cx="36.2" cy="33.4" r="2.3" fill="#5865F2"/>
</svg>
