<svg width="64" height="64" viewBox="0 0 64 64" fill="none" xmlns="http://www.w3.org/2000/svg">
  <rect width="64" height="64" rx="18" fill="#0D1117"/>
  <path d="M32 15C22.6112 15 15 22.8222 15 32.4704C15 40.1889 19.8658 46.7296 26.6168 49.0395C27.4671 49.2001 27.7783 48.6618 27.7783 48.2037C27.7783 47.7863 27.7624 46.679 27.7544 45.2111C23.027 46.2677 22.0281 43.1456 22.0281 43.1456C21.2558 41.1056 20.1434 40.5645 20.1434 40.5645C18.6032 39.4756 20.259 39.4999 20.259 39.4999C21.9626 39.6238 22.8597 41.3257 22.8597 41.3257C24.3739 43.9789 26.8319 43.2127 27.8007 42.7645C27.9539 41.6328 28.3931 40.8609 28.8786 40.425C25.105 39.9815 21.1392 38.4914 21.1392 31.8341C21.1392 29.9362 21.795 28.3847 22.8684 27.1658C22.6934 26.7196 22.1136 24.9205 23.0327 22.4851C23.0327 22.4851 24.4541 22.0172 27.7449 24.3104C29.1018 23.9234 30.5575 23.7299 32 23.7234C33.4425 23.7299 34.8982 23.9234 36.2551 24.3104C39.5459 22.0172 40.9673 22.4851 40.9673 22.4851C41.8864 24.9205 41.3066 26.7196 41.1316 27.1658C42.205 28.3847 42.8608 29.9362 42.8608 31.8341C42.8608 38.5076 38.887 39.976 35.1054 40.4101C35.7149 40.9523 36.259 42.0154 36.259 43.6403C36.259 45.9626 36.2391 47.835 36.2391 48.2037C36.2391 48.6618 36.5483 49.2083 37.4045 49.0372C44.1502 46.7249 49 40.1866 49 32.4704C49 22.8222 41.3888 15 32 15Z" fill="#F0F6FC"/>
</svg>
