<svg width="64" height="64" viewBox="0 0 64 64" fill="none" xmlns="http://www.w3.org/2000/svg">
  <rect width="64" height="64" rx="18" fill="#F43D30"/>
  <path d="M40.8 24.4C41.9 21.9 41.1 19.8 39 18.3C42 18 44.6 19.8 45.4 22.8C46.1 25.5 44.8 27.9 42.4 29" stroke="#FFD35A" stroke-width="3.2" stroke-linecap="round"/>
  <path d="M33 25C24.2 25 17 30.2 17 36.6C17 42.9 24.2 48 33 48C41.8 48 49 42.9 49 36.6C49 30.2 41.8 25 33 25Z" fill="white"/>
  <ellipse cx="29" cy="36" rx="4.2" ry="5.2" fill="#F43D30"/>
  <ellipse cx="39" cy="36" rx="4.2" ry="5.2" fill="#F43D30"/>
  <path d="M28 42C30 43.2 31.9 43.8 34 43.8C36.1 43.8 38 43.2 40 42" stroke="#F43D30" stroke-width="3.2" stroke-linecap="round"/>
</svg>
